<?xml version="1.0" encoding="UTF-8" standalone="no" ?>
<!-- Created with Inkscape (http://www.inkscape.org/) -->
<svg
  width="42.882095"
  height="36.09119"
  viewBox="0 0 42.882095 36.09119"
  version="1.1"
  id="svg1"
  xml:space="preserve"
  sodipodi:docname="bikebell2.svg"
  inkscape:version="1.3.2 (091e20e, 2023-11-25)"
  inkscape:export-filename="bikebell2.png"
  inkscape:export-xdpi="96"
  inkscape:export-ydpi="96"
  xmlns:inkscape="http://www.inkscape.org/namespaces/inkscape"
  xmlns:sodipodi="http://sodipodi.sourceforge.net/DTD/sodipodi-0.dtd"
  xmlns="http://www.w3.org/2000/svg"
  xmlns:svg="http://www.w3.org/2000/svg"
><sodipodi:namedview
    id="namedview1"
    pagecolor="#ffffff"
    bordercolor="#000000"
    borderopacity="0.25"
    inkscape:showpageshadow="2"
    inkscape:pageopacity="0.0"
    inkscape:pagecheckerboard="0"
    inkscape:deskcolor="#d1d1d1"
    inkscape:zoom="10.096882"
    inkscape:cx="20.600419"
    inkscape:cy="26.592368"
    inkscape:window-width="1584"
    inkscape:window-height="808"
    inkscape:window-x="4005"
    inkscape:window-y="201"
    inkscape:window-maximized="0"
    inkscape:current-layer="layer1"
  /><defs id="defs1" /><g
    id="layer1"
    transform="translate(-2.5211523,-7.0956469)"
  ><path
      style="fill:#ffffff;stroke-width:0.285744;stroke-linejoin:round"
      d="M 6.5930746,24.188986 C 5.1876647,23.49517 3.9479635,22.543895 3.4312809,21.762809 2.5255113,20.393526 2.2410853,17.921203 2.827884,16.517886 3.7431651,14.329012 5.3167067,13.69695 7.5572899,14.61817 c 1.1289832,0.464185 1.3424075,0.702837 2.1369799,2.389587 0.3042516,0.645875 0.7645142,1.448499 1.0228062,1.783607 0.556085,0.721467 1.872177,1.46541 3.495105,1.975668 l 1.115772,0.350803 -0.105996,1.045763 c -0.0583,0.575169 -0.126543,1.062672 -0.151671,1.083342 -0.02512,0.02068 -0.465228,-0.02681 -0.978016,-0.105518 -2.031441,-0.311785 -3.522185,-0.0036 -5.1662658,1.068211 -0.4228066,0.275623 -0.8835183,0.500813 -1.0238037,0.500425 -0.1402855,-3.9e-4 -0.7293922,-0.234872 -1.3091259,-0.521072 z"
      id="path14"
    /><path
      style="fill:#ffffff;stroke-width:0.198081;stroke-linejoin:round"
      d="m 21.145142,29.758695 c -2.527812,-0.348832 -4.717675,-1.11017 -6.380034,-2.218115 -1.16514,-0.776554 -1.198694,-0.825581 -1.532702,-2.239487 -0.636639,-2.694986 -0.76615,-4.414691 -0.462502,-6.141331 0.565198,-3.213906 2.071755,-5.472786 4.84449,-7.263662 1.346768,-0.86986 2.670468,-1.645411 2.808368,-1.645411 0.05613,0 0.126958,0.185663 0.157395,0.412585 0.0821,0.612102 0.522589,1.168167 1.199667,1.514438 0.497923,0.254646 0.710868,0.300695 1.545551,0.334221 1.711745,0.06875 3.366837,-0.410183 4.732979,-1.369588 0.806716,-0.566534 1.257492,-1.137976 1.467992,-1.8609502 0.176609,-0.6065739 0.116795,-1.1874966 -0.174269,-1.6925205 -0.105988,-0.1839 -0.171961,-0.355109 -0.146605,-0.3804643 0.02536,-0.025355 0.756045,-0.070737 1.623755,-0.1008487 2.650026,-0.091962 5.037734,0.3493462 6.993147,1.2925076 2.549716,1.2298136 3.909882,2.6794941 5.419542,5.7762161 0.772573,1.584756 0.796373,1.735569 0.490218,3.106278 -0.94818,4.245141 -3.707182,7.654641 -7.929002,9.798446 -2.328568,1.182427 -4.979115,1.984486 -8.397396,2.541061 -1.124785,0.18314 -5.268267,0.273564 -6.260594,0.136625 z M 23.962044,17.58833 c 3.401799,-0.701868 7.778543,-2.805486 11.042668,-5.307497 1.374937,-1.053915 1.788825,-1.522764 1.788825,-2.026368 0,-0.5969965 -0.43124,-1.0437007 -1.00757,-1.0437007 -0.38657,0 -0.503886,0.064458 -1.17185,0.6438672 -2.57482,2.2334645 -6.979048,4.6200005 -9.96363,5.3990305 -1.936228,0.505391 -4.545433,0.69137 -6.179438,0.440457 -1.794269,-0.275522 -1.984494,-0.256397 -2.280633,0.229296 -0.233874,0.383572 -0.246279,0.676312 -0.04514,1.065268 0.197008,0.380971 0.531419,0.541127 1.434411,0.686965 0.408542,0.06598 0.809655,0.135877 0.891364,0.155324 0.08171,0.01945 1.129061,0.01852 2.327451,-0.0021 1.698371,-0.02917 2.396041,-0.08222 3.163544,-0.240578 z"
      id="path15"
    /><path
      style="fill:#ffffff;stroke-width:0.198081;stroke-linejoin:round"
      d="m 22.06282,34.805651 c -1.609683,-0.123743 -2.9414,-0.522165 -4.235534,-1.267183 -1.074875,-0.618793 -3.015406,-2.774484 -3.019805,-3.354634 -6.19e-4,-0.08159 0.189418,-0.03658 0.568553,0.134668 2.520688,1.138525 4.985331,1.627097 8.24512,1.634447 6.568563,0.01481 13.079188,-2.117985 17.036388,-5.580897 1.82461,-1.596701 3.456549,-3.834575 4.26387,-5.847033 0.138004,-0.344013 0.264798,-0.534706 0.319296,-0.480208 0.04972,0.04972 0.114214,0.641943 0.143327,1.316059 0.04248,0.983521 0.01925,1.341518 -0.117543,1.812077 -0.410543,1.412221 -1.309538,2.714527 -3.115264,4.51285 -2.648399,2.637542 -5.35268,4.37511 -8.453222,5.431407 -4.159701,1.417133 -7.97063,1.970159 -11.635186,1.688447 z"
      id="path16"
    /><path
      style="fill:#ffffff;stroke-width:0.24066;stroke-linejoin:round"
      d="m 30.985628,42.798493 c -1.222372,-0.27775 -2.299205,-1.506401 -3.210144,-3.66273 -0.723985,-1.713777 -1.427122,-4.113791 -1.240715,-4.234929 0.06876,-0.04468 0.427236,-0.122618 0.796615,-0.173187 0.653191,-0.08942 2.600239,-0.520196 2.994203,-0.662452 0.118366,-0.04274 0.195947,-0.0033 0.196047,0.09968 9e-5,0.09373 0.372149,1.028834 0.826799,2.078013 0.960574,2.21669 2.218527,4.456483 3.188732,5.677559 0.636621,0.801234 0.665471,0.863749 0.431983,0.936075 -0.370175,0.114663 -3.418957,0.07024 -3.98352,-0.05803 z"
      id="path17"
    /><path
      style="fill:#ffffff;stroke-width:0.312611;stroke-linejoin:round"
      d="m 36.413549,43.125392 c -1.824692,-0.430328 -3.825935,-1.796944 -5.684404,-3.881785 -1.242899,-1.394293 -2.53046,-3.109201 -3.276927,-4.364556 l -0.451969,-0.760087 0.429193,-0.0609 c 0.390276,-0.05537 0.473514,0.03187 0.917999,0.962069 0.268843,0.562627 0.857158,1.56831 1.307364,2.234848 1.924844,2.849762 3.695477,4.360794 6.003242,3.712749 1.569399,-0.440704 1.290832,-0.248579 1.430655,-2.712197 0.07751,-1.365689 -0.480873,-4.075971 -1.087554,-5.555217 -0.36099,-0.880188 1.765717,-2.245377 2.323885,-2.245377 0.436494,0 1.577761,4.085141 1.898076,6.794119 0.3195,2.702086 -0.331637,4.941833 -1.632307,5.614728 -0.551205,0.285164 -1.56224,0.406638 -2.177253,0.261596 z"
      id="path18"
      sodipodi:nodetypes="csscssssssssscc"
    /><path
      style="fill:#ffffff;stroke-width:0.198081;stroke-linejoin:round"
      d="m 21.145142,29.752722 c -2.445273,-0.314752 -4.712865,-1.100991 -6.380034,-2.212142 -1.16514,-0.776554 -1.198694,-0.825581 -1.532702,-2.239487 -0.636639,-2.694986 -0.76615,-4.414691 -0.462502,-6.141331 0.558337,-3.174889 2.06381,-5.460367 4.746182,-7.205239 1.355559,-0.881786 2.751288,-1.703834 2.892886,-1.703834 0.06372,0 0.140603,0.184582 0.170863,0.410182 0.07993,0.595917 0.537851,1.170935 1.208943,1.518083 0.490788,0.253879 0.700915,0.299413 1.536597,0.332979 2.600764,0.10446 5.381485,-1.225703 6.10645,-2.9210317 C 29.675529,9.0209986 29.6509,8.0875909 29.380046,7.6285278 29.258675,7.4228183 29.180116,7.2337653 29.205472,7.20841 c 0.02536,-0.025355 0.756045,-0.070737 1.623755,-0.1008487 2.650026,-0.091962 5.037734,0.3493462 6.993147,1.2925076 2.545086,1.2275804 3.8983,2.6678951 5.419223,5.7680341 0.773539,1.576726 0.79815,1.732462 0.492194,3.11446 -0.931798,4.20892 -3.679725,7.627339 -7.843297,9.757058 -2.701669,1.381937 -5.992016,2.309692 -9.644768,2.719463 -1.04335,0.117044 -4.172171,0.113142 -5.100584,-0.0064 z m 1.868885,-12.025525 c 2.196882,-0.312255 3.944937,-0.885026 6.500035,-2.129812 2.72846,-1.329244 5.238987,-2.952584 6.641871,-4.29472 0.583916,-0.55863 0.637604,-0.644641 0.637604,-1.021467 0,-0.5198136 -0.363755,-0.987278 -0.837385,-1.0761318 -0.40501,-0.07598 -0.619831,0.031912 -1.391026,0.6986329 -1.557235,1.3462769 -3.398568,2.5215919 -5.833271,3.7233519 -2.488189,1.228161 -3.981067,1.727544 -6.051586,2.024318 -1.152587,0.165204 -3.283426,0.185809 -4.20922,0.0407 -1.398379,-0.219179 -1.737007,-0.226762 -2.014249,-0.04511 -0.387217,0.253715 -0.541965,0.851062 -0.333645,1.287915 0.203931,0.427647 0.52322,0.590032 1.45653,0.740767 0.408542,0.06598 0.809655,0.133065 0.891364,0.149074 0.491218,0.09624 3.658023,0.02826 4.542978,-0.09753 z"
      id="path19"
    /></g></svg>
