<svg
  width="48"
  height="48"
  class="dring-dring"
  viewBox="0 0 512 512"
  xmlns="http://www.w3.org/2000/svg"
>
<g clip-path="url(#clip0_68_89)">
<path
      d="M100.757 168.559C101.201 165.897 99.7572 163.346 97.3134 162.459C92.0924 160.574 83.65 157.025 79.0956 152.7C72.0973 146.157 72.0973 134.624 65.3212 127.416C55.2125 116.881 31.3295 104.46 20.7765 137.618C17.555 147.599 19.1102 162.681 22.776 172.662C31.3295 196.172 55.9901 204.156 61.5443 193.843C67.0985 183.53 81.9838 188.076 90.7594 191.625C94.0919 192.956 97.8688 190.627 98.202 186.967C99.0907 178.872 100.09 172.551 100.868 168.559H100.757Z"
    />
<path
      d="M323.481 326.143C391.575 309.841 437.342 277.57 466.779 247.85C470.334 244.301 476.221 247.85 474.777 252.618C462.114 295.092 410.571 332.575 328.591 351.538C241.39 371.721 173.517 359.079 142.081 323.814C138.748 320.043 142.636 314.166 147.413 316.051C187.07 332.02 247.055 344.441 323.592 326.143H323.481Z"
    />
<path
      d="M378.579 414.637C367.36 407.873 357.696 387.8 351.808 369.502C350.919 366.73 352.808 363.847 355.696 362.96C368.693 359.189 379.801 355.197 389.243 351.537C392.465 350.317 396.02 351.981 396.686 355.197C400.796 376.378 402.574 400.332 395.686 411.532C391.798 417.964 384.911 418.519 378.468 414.748L378.579 414.637Z"
    />
<path
      d="M396.353 446.576C343.255 458.331 323.926 395.453 319.372 377.044C318.705 374.382 320.371 371.721 323.037 371.277C325.703 370.834 328.147 370.279 330.702 369.725C333.257 369.17 335.368 370.612 336.034 372.941C341.366 390.13 351.142 414.527 366.804 424.951C374.136 429.831 382.356 431.494 390.576 429.609C398.797 427.724 404.684 423.066 408.794 415.636C419.014 397.338 413.904 364.956 409.239 344.995C408.794 342.999 409.683 341.003 411.349 339.894C418.903 335.014 419.792 333.794 422.791 335.236C429.012 338.23 450.895 434.488 396.464 446.576H396.353Z"
    />
<path
      d="M242.5 377.931C251.386 378.707 268.493 379.04 295.487 375.269C298.264 374.937 300.93 376.489 301.707 379.151C306.262 393.567 321.925 437.593 349.696 450.79C352.362 452.01 351.806 456.002 348.918 456.224C319.481 458.885 250.831 456.778 236.501 384.585C235.723 380.814 238.834 377.487 242.5 377.82V377.931Z"
    />
<path
      d="M289.933 66.4218C290.599 69.1942 281.268 80.2838 260.495 85.1633C239.723 90.0427 226.504 84.4979 225.837 81.7255C225.282 79.3967 231.614 71.1903 246.388 65.7564C249.054 64.7583 251.942 63.8712 255.163 63.0949C258.385 62.3186 261.384 61.875 264.272 61.4314H264.717C279.935 59.8789 289.377 64.0929 289.933 66.3109V66.4218Z"
    />
<path
      d="M463.224 156.248C433.565 83.611 383.577 51.1183 309.151 55.3324C310.262 57.1068 311.039 59.1029 311.595 61.2099C316.038 79.8405 296.487 99.3583 265.717 106.788C234.947 114.218 208.731 105.569 204.288 86.9379C203.621 84.3873 203.51 81.8367 203.843 79.2861C131.972 107.565 106.534 153.698 113.199 246.518C113.421 250.289 113.865 254.059 114.309 257.719C115.865 269.474 123.418 279.343 133.86 284.999C167.852 302.964 231.836 325.144 318.26 304.406C393.797 286.33 439.564 246.629 465.113 215.689C472.778 206.374 475.777 193.953 472.444 182.42C470.001 173.881 466.89 165.009 463.224 156.026V156.248ZM377.801 103.905C376.912 105.679 352.474 148.486 279.158 166.118C205.843 183.751 165.741 156.359 164.075 155.139C158.965 151.702 157.743 144.826 161.076 139.725C164.519 134.623 171.407 133.293 176.517 136.73C177.072 137.063 180.627 139.281 187.292 141.943C201.955 147.709 231.392 154.807 274.048 144.493C316.705 134.18 340.588 114.44 351.141 102.685C356.028 97.2513 358.25 93.5917 358.472 93.1481C361.583 87.8251 368.248 85.9399 373.58 88.9341C378.912 91.9283 380.8 98.5821 377.912 103.905H377.801Z"
    />
</g>
<defs>
<clipPath id="clip0_68_89">
<rect width="456" height="402" fill="white" transform="translate(19 55)" />
</clipPath>
</defs>
</svg>
