<svg
  width="383"
  height="395"
  viewBox="0 0 383 395"
  fill="none"
  xmlns="http://www.w3.org/2000/svg"
>
<path
    opacity="0.3"
    d="M0.305091 384.26C3.46509 387.68 21.2251 389.35 53.4951 390.27C83.9051 391.15 115.405 392.93 191.415 393.82C264.445 394.67 365.665 395.65 380.865 388.81C396.055 381.97 315.755 379.55 260.405 379.75C205.065 379.95 157.085 383.02 127.065 382.11C97.0451 381.19 61.3451 378.48 38.5351 378.68C16.4251 378.88 -2.61491 381.1 0.295091 384.24H0.305091V384.26Z"
    fill="var(--ion-color-primary)"
  />
<path
    d="M275.655 381.23C270.455 378.35 265.365 375.02 259.565 373.74C258.665 372.57 258.955 371.03 258.875 369.62C258.715 364.84 258.515 360.1 258.595 355.68C258.265 343.65 258.915 331.2 258.475 319.39C259.715 318.54 259.705 317.08 259.865 315.73C261.705 304.37 261.015 292.9 260.365 281.47C261.345 281.23 260.855 279.9 260.975 279.17C260.955 277.94 261.035 276.64 260.885 275.43C263.245 274.96 261.175 270.94 261.315 269.15C261.415 269.22 261.625 269.35 261.745 269.38C259.375 254.96 259.655 240.24 256.885 225.89C259.585 225.1 259.335 210.68 259.665 207.58C259.405 207.15 259.395 205.66 259.385 205.49L259.265 205.72C259.185 205.24 259.055 204.58 258.895 203.82C258.855 203.84 258.815 203.85 258.775 203.87L257.715 198.37L257.785 198.61C257.405 196.84 257.045 195.22 256.865 194.32C256.785 189.92 260.205 184.02 255.505 180.89C251.475 178.06 247.015 175.64 243.595 172.05L243.715 172.16C238.185 166.97 237.705 163.53 239.135 156.21C244.225 153.7 249.415 149.07 249.405 142.97C249.405 141.36 251.655 141.05 252.005 139.77C249.765 135.21 247.365 130.39 246.095 125.52C247.655 123.28 250.115 119.39 248.225 116.76C246.205 115.45 243.505 114.6 241.065 114.32C236.175 115.03 231.495 117.14 227.015 119.18C216.245 122.38 211.645 132.54 214.135 143.12C213.495 149.65 205.015 153.68 207.905 160.99C210.285 167.12 203.945 173.27 208.615 178.86C209.655 180.85 210.735 182.9 211.645 184.93C213.585 198.4 218.125 210.97 222.905 223.76C216.875 247.68 220.885 251.34 226.555 273.8C226.415 273.98 226.415 274.21 226.425 274.43C226.525 274.46 226.745 274.55 226.845 274.59C227.185 276.77 229.975 277.36 231.795 277.85C231.585 279.27 231.825 280.71 231.715 282.1C233.015 291.55 235.385 301.28 240.345 309.74C239.375 310.46 238.475 311.56 237.185 311.62C222.175 320.35 211.355 333.91 201.705 348.1C198.465 347.14 194.275 348.33 192.215 351.13C192.135 351.04 191.995 351.05 191.895 351C183.645 343.77 193.635 370.18 195.475 372.01C198.685 376.27 199.865 383.23 205.275 385.2C206.605 385.58 208.315 384.06 207.425 382.78C206.815 373.82 207.655 364.87 207.425 355.91C214.815 350.49 223.225 345.91 230.705 340.49C235.475 336.75 240.395 333 245.305 329.47C246.215 344.29 247.655 359.64 250.895 374.26C250.875 374.34 250.845 374.46 250.805 374.62C249.155 374.52 247.745 382.7 247.685 384.04C246.065 384 245.385 386.32 247.065 386.83L246.885 386.76C254.665 390.67 307.315 395.47 275.665 381.27L275.655 381.23ZM231.725 163.31C229.855 160.8 225.465 158.3 222.725 160.83C223.535 157.51 225.535 154.28 224.955 150.75C232.915 144.19 233.055 139.58 232.895 129.83C236.955 129.41 241.505 128.04 244.685 125.54C244.755 125.63 244.865 125.72 244.965 125.76C246.305 130.47 248.235 135.07 250.615 139.35C245.355 144.02 249.945 147.96 238.755 153.69C236.635 154.53 237.255 156.98 236.845 158.9C236.895 164.37 237.805 167.07 240.985 170.7C241.005 170.7 241.195 170.89 241.215 170.9C236.085 172.42 233.415 167.27 231.715 163.31H231.725ZM205.145 383.01C205.015 382.95 204.955 382.93 204.905 382.86C205.095 382.97 205.295 383.06 205.515 383.12C205.465 383.14 205.195 383.03 205.155 383.01H205.145ZM257.675 372.03C257.355 372.32 257.355 372.64 257.485 372.97C257.485 372.97 256.965 373.74 255.645 373.8C254.835 373.84 253.215 373.95 252.095 374.03C251.805 373.1 251.495 372.19 251.495 371.82C251.045 369.72 250.765 367.56 250.595 365.42C249.495 353.19 247.385 341.11 247.195 328.86L247.245 328.89C247.245 328.65 247.125 328.43 246.935 328.28C250.515 325.48 254.395 323.06 257.785 319.99C257.165 337.31 257.525 354.7 257.695 372.02L257.675 372.03ZM237.675 333.24C228.405 340.61 217.965 346.92 207.815 353.37H207.845C207.455 353.6 206.925 354 206.725 354.46C206.705 354.44 206.695 354.43 206.695 354.43L203.345 349.23C204.155 348.51 204.745 346.83 205.445 346.22C207.895 342.29 210.985 337.83 213.785 334.43C221.105 324.59 230.865 316.95 241.305 310.51C241.305 309.79 241.685 309.22 242.005 308.65C241.925 308.65 241.845 308.64 241.765 308.62L241.675 308.7C239.735 306 238.415 302.63 237.085 299.63L237.165 299.75C235.095 294.52 234.095 289.11 233.195 283.6C233.285 281.75 232.845 279.81 233.025 277.93C235.095 278.38 237.205 278.69 239.335 278.68C242.855 279.5 242.205 274.33 242.885 272.17C247.675 279.2 252.515 275.74 259.425 275.41C259.545 276.71 259.515 278.05 259.495 279.35H259.405C259.615 292.24 260.755 305.15 258.125 317.87C251.825 323.52 244.365 328.02 237.685 333.21L237.675 333.24Z"
    fill="#1A2A49"
  />
<path
    d="M354.855 290.08C344.275 279.51 331.365 273.29 318.175 272.33L314.595 272.19C307.655 272.19 300.825 273.57 294.335 276.19L288.585 266.15C284.865 259.01 277.315 242.02 277.245 241.85L276.675 240.57L274.135 241.41L268.635 225.44C268.385 224.73 268.705 223.96 269.375 223.62L270.935 222.84C270.935 222.84 270.975 222.82 270.995 222.81L272.695 221.96L274.755 231.96C275.735 236.73 279.985 240.19 284.865 240.19H306.325C310.305 240.19 313.675 237.21 314.175 233.26L316.755 212.59C316.935 211.14 316.405 209.68 315.315 208.69C314.225 207.7 312.735 207.29 311.305 207.6L274.445 215.54L272.345 207.31C271.725 204.91 269.565 203.23 267.095 203.23H252.485C251.635 203.23 250.945 203.92 250.945 204.77C250.945 205.62 251.635 206.31 252.485 206.31H267.095C268.155 206.31 269.085 207.04 269.355 208.07L271.755 217.44L272.045 218.84L270.605 219.56L265.865 215.03C264.025 213.27 261.315 212.76 258.955 213.74L239.075 222.03C238.285 222.36 237.915 223.26 238.245 224.04C238.495 224.63 239.065 224.99 239.665 224.99C239.865 224.99 240.065 224.95 240.255 224.87L260.125 216.58C261.355 216.07 262.765 216.33 263.715 217.25L267.685 221.04C265.845 222.14 264.985 224.4 265.695 226.44L271.175 242.38L268.355 243.32L269.095 247.65L264.595 250.56C262.345 252.01 260.475 253.88 259.035 256.12L222.045 313.51C220.555 315.81 218.165 317.44 215.445 317.99L203.855 320.66L188.775 267.89C188.105 265.53 185.815 264.12 183.435 264.48L180.635 254.68C181.425 254.42 182.225 254.15 183.025 253.87L184.325 253.43C186.445 252.71 188.645 252.94 190.765 253.17C193.795 253.5 196.935 253.84 199.025 250.98L199.805 249.88L199.695 249.77C200.175 248.58 199.955 247.62 199.625 246.97C197.675 243.11 187.795 242.81 174.055 242.81C165.975 242.81 164.365 246.56 164.045 248.17C163.485 251 165.335 254.06 168.335 255.29C169.895 255.93 171.445 256.19 173.005 256.19C174.565 256.19 176.095 255.93 177.655 255.54L180.465 265.39C179.755 265.8 179.145 266.38 178.725 267.12C178.065 268.27 177.905 269.6 178.285 270.88L179.445 274.83C177.135 275.22 173.275 276.67 168.735 281.49C168.215 281.08 167.645 280.66 167.005 280.2L169.095 278.48C170.285 277.5 170.995 276.04 171.045 274.49C171.095 272.94 170.475 271.44 169.335 270.38L165.205 266.52C163.345 264.77 160.915 263.7 158.345 263.49L138.935 261.98C137.565 261.88 136.195 262.13 134.955 262.72L133.855 263.25C133.185 263.57 132.435 263.72 131.685 263.68L96.6651 262.01C95.3951 261.95 94.2051 262.53 93.4851 263.57C92.7551 264.61 92.6251 265.94 93.1251 267.11L95.0451 271.58C95.8251 273.41 97.1951 274.87 98.9151 275.79C90.0351 279.48 83.4351 283.92 79.4451 287.05C79.3951 287.09 79.3451 287.14 79.2951 287.18C77.4051 288.73 76.3351 291.01 76.3651 293.45C76.3951 295.95 77.5551 298.24 79.5351 299.71L80.7551 300.67C74.8151 309.85 71.6151 320.05 71.6151 330.34C71.6151 345.35 77.9551 360.32 89.0151 371.39C99.8251 382.2 114.795 388.41 130.065 388.41C145.335 388.41 159.015 382.12 170.415 370.69C178.665 362.43 184.165 352.44 186.475 341.79C194.535 342.54 202.295 343.16 208.925 343.51C211.975 347.74 216.925 350.51 222.525 350.51C231.765 350.51 239.285 342.99 239.285 333.75C239.285 332.58 239.165 331.45 238.935 330.35L274.915 274.89C275.935 277.45 277.135 279.94 278.535 282.33H278.425L279.885 284.56C277.835 286.16 275.855 287.89 273.975 289.78C262.645 301.11 256.405 315.52 256.405 330.35C256.405 345.18 262.755 359.06 274.295 370.6C285.715 382.02 300.015 388.32 314.545 388.32C329.075 388.32 344.695 382.12 355.505 371.32C366.085 360.72 372.155 345.79 372.155 330.36C372.155 314.93 365.995 301.27 354.805 290.1L354.855 290.08ZM130.135 377.7C117.675 377.7 105.875 372.73 96.9151 363.71C87.9651 354.7 83.0451 342.86 83.0451 330.36C83.0451 321.99 85.3051 314.13 89.2451 307.34L122.755 333.78C122.755 333.78 122.805 333.82 122.835 333.84C123.725 334.45 124.695 334.87 125.695 335.13C126.205 335.39 126.765 335.55 127.345 335.6C131.355 335.93 138.585 336.73 147.735 337.74C156.315 338.69 166.475 339.82 176.645 340.84C171.685 361.66 152.395 377.7 130.115 377.7H130.135ZM139.045 327.15L163.555 297.18C172.145 305.38 177.565 316.69 177.875 329.23L139.045 327.16V327.15ZM187.765 329.75C187.555 311.8 178.025 298.49 170.005 290.47C169.825 290.29 169.645 290.13 169.465 289.96L172.295 286.5C172.785 285.9 172.755 285.02 172.215 284.46C172.125 284.37 171.765 284.01 171.175 283.47C175.475 278.95 178.855 278 180.385 277.82L195.795 330.19L187.765 329.76V329.75ZM206.405 329.45L204.745 323.63L210.335 322.34C208.485 324.32 207.115 326.75 206.405 329.45ZM227.135 317.63C225.885 317.28 224.585 317.07 223.235 317.02C223.765 316.45 224.255 315.85 224.675 315.19L261.665 257.8C262.875 255.93 264.435 254.37 266.305 253.16L269.695 250.96L270.185 253.84L227.135 317.62V317.63ZM314.585 376.37C288.665 376.37 268.355 356.16 268.355 330.36C268.355 317.86 273.125 306.15 281.795 297.41C283.105 296.08 284.495 294.86 285.945 293.72L310.245 330.83C311.205 332.54 312.265 334.3 313.655 335.43C314.635 336.22 315.695 336.62 316.805 336.62C317.695 336.62 318.615 336.36 319.545 335.84C323.345 333.71 324.345 328.74 321.855 324.27L300.045 286.14C304.675 284.62 309.565 283.82 314.595 283.82C340.625 283.82 361.805 304.7 361.805 330.36C361.805 356.02 340.625 376.37 314.595 376.37H314.585Z"
    fill="#1A2A49"
  />
<path
    d="M222.355 223.52C222.355 223.52 217.595 209.93 213.785 196.99C209.975 184.05 211.425 175.37 214.785 169.73C218.135 164.09 223.145 158.31 227.525 159.45C231.915 160.59 232.495 165.12 235.035 168.06C237.575 170.99 242.475 170.47 242.475 170.47C242.475 170.47 245.465 173.74 250.605 176.86C255.745 179.98 259.135 181.81 258.555 186.72C257.985 191.63 256.575 192.43 258.705 200.73C260.835 209.03 259.495 220.08 258.705 226.16C258.705 226.16 258.935 228.74 252.235 227.91C245.535 227.08 238.985 226.31 232.885 225.7C226.785 225.09 222.995 225.44 222.335 223.53H222.365L222.355 223.52Z"
    fill="var(--ion-color-primary)"
  />
<path
    d="M85.2851 294.8L124.345 325.39C126.265 326.9 129.055 326.59 130.605 324.69L137.815 315.85C139.945 313.24 141.355 310.13 141.905 306.82L146.225 281.17C146.495 279.6 145.525 278.09 143.995 277.66C136.415 275.55 112.335 272.72 85.3251 291.67C84.2451 292.42 84.2351 294.01 85.2551 294.82H85.2851V294.8Z"
    fill="var(--ion-color-primary)"
  />
<path
    d="M276.825 218.94L283.885 217.5C284.705 217.32 285.565 217.54 286.225 218.05L306.625 234.18C307.285 234.7 306.965 235.75 306.115 235.82L302.375 236.09C301.805 236.13 301.245 236.14 300.675 236.14H282.405C281.545 236.14 280.735 235.71 280.255 235L278.995 233.14C278.645 232.63 278.405 232.04 278.285 231.43L276.075 220.03C275.985 219.52 276.305 219.03 276.805 218.93H276.835L276.825 218.94Z"
    fill="var(--ion-color-primary)"
  />
<path
    d="M265.235 268.43L235.355 313.93C234.575 315.12 234.905 316.71 236.095 317.49L238.415 319.01C239.605 319.79 241.195 319.46 241.975 318.27L271.845 272.77C272.625 271.58 272.295 269.99 271.105 269.21L268.785 267.69C267.595 266.91 266.005 267.24 265.225 268.43H265.235Z"
    fill="var(--ion-color-primary)"
  />
<path
    d="M239.525 209.86C238.385 209.86 237.385 209.86 236.605 209.83C230.985 209.67 226.195 199.71 224.265 193.84C223.985 192.99 223.615 192.04 223.245 191.01C221.655 186.8 219.665 181.56 221.295 178.27C221.915 176.99 223.025 176.12 224.605 175.63C225.175 175.45 225.745 175.36 226.285 175.36C229.505 175.36 232.085 178.24 234.185 184.16C236.095 189.56 238.535 198.5 239.045 200.41C241.135 200.46 251.395 200.72 258.715 201.39C263.695 201.85 264.515 203.84 264.555 204.98C264.625 206.77 262.815 208.6 260.625 208.98C257.785 209.46 246.055 209.81 239.545 209.81V209.84L239.525 209.86Z"
    fill="white"
  />
<path
    d="M226.275 175.87C229.425 175.87 231.835 179.07 233.705 184.33C235.855 190.43 238.645 200.92 238.645 200.92C238.645 200.92 250.435 201.15 258.655 201.92C266.875 202.69 264.155 207.89 260.525 208.53C257.765 209 246.165 209.36 239.515 209.36C238.385 209.36 237.385 209.36 236.605 209.33C231.275 209.18 226.555 199.22 224.725 193.69C222.895 188.16 217.715 178.26 224.725 176.13C225.245 175.97 225.775 175.89 226.255 175.89M226.275 174.86C225.685 174.86 225.065 174.95 224.445 175.14C222.735 175.67 221.515 176.63 220.825 178.03C219.105 181.52 221.135 186.87 222.765 191.18C223.145 192.19 223.505 193.14 223.785 193.99C225.765 199.98 230.685 210.15 236.595 210.33C237.375 210.36 238.385 210.36 239.525 210.36C246.065 210.36 257.835 210.01 260.705 209.51C263.145 209.09 265.135 207.02 265.055 204.99C265.005 203.68 264.115 201.41 258.755 200.91C251.785 200.27 242.175 199.99 239.435 199.93C238.765 197.43 236.475 189.12 234.675 184C232.495 177.85 229.765 174.86 226.305 174.86H226.275Z"
    fill="#1A2A49"
  />
<path
    d="M42.7651 6.39001H124.295C129.035 6.39001 132.885 10.24 132.885 14.97V23.07C132.885 27.81 129.035 31.65 124.295 31.65H42.7651V6.39001Z"
    fill="var(--ion-color-primary)"
  />
<path
    d="M50.3951 41.46H116.665C123.765 41.46 129.525 47.22 129.525 54.32V208.82C129.525 215.93 123.765 221.68 116.665 221.68H50.3951C46.1851 221.68 42.7651 218.26 42.7651 214.05V49.09C42.7651 44.88 46.1851 41.46 50.3951 41.46Z"
    fill="var(--ion-color-primary)"
  />
<path
    d="M42.5651 49.38H118.015C120.355 49.38 122.245 51.28 122.245 53.6V184.59C122.245 186.93 120.345 188.81 118.015 188.81H42.5651V49.37V49.38Z"
    fill="white"
  />
<path
    fill-rule="evenodd"
    clip-rule="evenodd"
    d="M42.7651 0C44.2851 0 45.5251 1.24 45.5251 2.76V383.22C45.5251 384.74 44.2951 385.98 42.7651 385.98C41.2351 385.98 40.0051 384.75 40.0051 383.22V2.76C40.0051 1.24 41.2351 0 42.7651 0Z"
    fill="#1A2A49"
  />
</svg>
