<svg
  width="36"
  height="45"
  viewBox="0 0 36 45"
  xmlns="http://www.w3.org/2000/svg"
>
<g id="marker6" clip-path="url(#clip0_84_99)">
<path
      id="6"
      d="M18.4372 28.336C16.9439 28.336 15.6839 28.0653 14.6572 27.524C13.6492 26.964 12.8372 26.236 12.2212 25.34C11.6239 24.4253 11.1852 23.408 10.9052 22.288C10.6439 21.1493 10.5132 19.992 10.5132 18.816C10.5132 16.6133 10.8212 14.7093 11.4372 13.104C12.0532 11.4986 12.9399 10.2573 14.0972 9.37996C15.2545 8.50263 16.6639 8.06396 18.3252 8.06396C19.7065 8.06396 20.8732 8.33463 21.8252 8.87596C22.7772 9.39863 23.5145 10.0986 24.0372 10.976C24.5785 11.8346 24.8865 12.7586 24.9612 13.748H21.3212C21.1719 12.9453 20.8359 12.3386 20.3132 11.928C19.7905 11.4986 19.1092 11.284 18.2692 11.284C17.5039 11.284 16.8319 11.5266 16.2532 12.012C15.6745 12.4786 15.2172 13.188 14.8812 14.14C14.5639 15.0733 14.3865 16.2493 14.3492 17.668C14.3492 17.7053 14.3492 17.7426 14.3492 17.78C14.3492 17.7986 14.3492 17.8266 14.3492 17.864C14.6292 17.36 15.0119 16.9213 15.4972 16.548C15.9825 16.156 16.5332 15.8573 17.1492 15.652C17.7839 15.428 18.4372 15.316 19.1092 15.316C20.2105 15.316 21.2279 15.5773 22.1612 16.1C23.0945 16.604 23.8412 17.332 24.4012 18.284C24.9799 19.236 25.2692 20.3653 25.2692 21.672C25.2692 22.8853 24.9799 23.996 24.4012 25.004C23.8225 26.012 23.0199 26.824 21.9932 27.44C20.9665 28.0373 19.7812 28.336 18.4372 28.336ZM18.2132 24.976C18.8479 24.976 19.4172 24.8453 19.9212 24.584C20.4252 24.304 20.8172 23.9306 21.0972 23.464C21.3772 22.9786 21.5172 22.428 21.5172 21.812C21.5172 21.1586 21.3772 20.5986 21.0972 20.132C20.8172 19.6466 20.4159 19.2733 19.8932 19.012C19.3892 18.7506 18.8198 18.62 18.1852 18.62C17.5505 18.62 16.9719 18.76 16.4492 19.04C15.9452 19.3013 15.5439 19.6746 15.2452 20.16C14.9652 20.6266 14.8252 21.1586 14.8252 21.756C14.8252 22.3906 14.9652 22.9506 15.2452 23.436C15.5439 23.9213 15.9452 24.304 16.4492 24.584C16.9719 24.8453 17.5599 24.976 18.2132 24.976Z"
      fill="#ffffff"
    />
</g>
<defs>
<clipPath id="clip0_84_99">
<rect width="36" height="45" fill="white" />
</clipPath>
</defs>
</svg>
