<svg width="36" height="45" viewBox="0 0 36 45" fill="none" xmlns="http://www.w3.org/2000/svg">
<g id="marker-bike" clip-path="url(#clip0_84_116)">
<path id="Vector" d="M18.002 0C13.032 0 8.53124 2.01913 5.27238 5.28822C2.01554 8.55485 0 13.0689 0 18.0542C0 26.9393 8.26388 36.1331 15.0283 43.6619C16.6077 45.4199 19.3923 45.4199 20.9717 43.6619C27.7386 36.1324 36 26.9368 36 18.0542C36 13.0692 33.9869 8.55497 30.7276 5.28822C27.4683 2.01913 22.9703 0 17.998 0H18.002Z" fill="#1861FF"/>
<g id="Group">
<path id="Vector_2" d="M9.62332 14.9549C10.5953 14.9605 11.5483 15.2253 12.3838 15.722L13.8515 13.9195L13.2113 11.9589H12.1181C11.8881 11.9589 11.6675 11.8675 11.5049 11.7049C11.3423 11.5423 11.2509 11.3217 11.2509 11.0917C11.2509 10.8617 11.3423 10.6412 11.5049 10.4785C11.6675 10.3159 11.8881 10.2245 12.1181 10.2245H13.8699C13.89 10.2253 13.9097 10.2225 13.9297 10.2245H15.8763C16.1063 10.2245 16.3269 10.3159 16.4895 10.4785C16.6521 10.6412 16.7435 10.8617 16.7435 11.0917C16.7435 11.3217 16.6521 11.5423 16.4895 11.7049C16.3269 11.8675 16.1063 11.9589 15.8763 11.9589H15.0371L15.4023 13.0775L22.2637 11.5205L21.7686 10.1017C21.6992 9.90336 21.7042 9.68657 21.7827 9.49167C21.8612 9.29678 22.0079 9.13706 22.1954 9.04228L23.6452 8.30898C24.1583 8.03501 24.748 7.93948 25.3214 8.03745C25.8948 8.13541 26.4193 8.42129 26.8124 8.85008C26.968 9.01943 27.05 9.24367 27.0403 9.47347C27.0306 9.70327 26.93 9.9198 26.7607 10.0754C26.5913 10.2311 26.3671 10.3131 26.1373 10.3034C25.9075 10.2937 25.691 10.1931 25.5353 10.0238C25.3996 9.87635 25.2183 9.77882 25.0205 9.74688C24.8226 9.71493 24.6198 9.75042 24.4446 9.84764L23.6553 10.2474L25.3319 15.0537C26.7193 14.7874 28.1561 15.0543 29.3554 15.8012C30.5546 16.548 31.4279 17.7198 31.8009 19.0824C32.1739 20.445 32.0191 21.8982 31.3674 23.1517C30.7157 24.4052 29.6151 25.3667 28.2855 25.8441C26.9558 26.3215 25.495 26.2797 24.1948 25.7271C22.8946 25.1744 21.8508 24.1516 21.2718 22.863C20.6928 21.5743 20.6213 20.1146 21.0716 18.7755C21.5218 17.4364 22.4607 16.3165 23.7007 15.6394L23.1081 13.9408L17.6005 21.019C17.5786 21.0472 17.5444 21.0598 17.5195 21.0848C17.4333 21.1664 17.334 21.233 17.2259 21.2819C17.208 21.2891 17.1956 21.3035 17.1771 21.3095C17.1055 21.3305 17.0315 21.3421 16.957 21.3442C16.9428 21.3449 16.9305 21.3536 16.9163 21.3536H15.0655C14.8979 22.3953 14.4355 23.3671 13.7328 24.1542C13.0302 24.9412 12.1168 25.5105 11.1007 25.7946C10.0846 26.0787 9.00839 26.0658 7.99942 25.7574C6.99045 25.4489 6.09097 24.8579 5.40743 24.0542C4.72388 23.2505 4.28489 22.2678 4.14242 21.2224C3.99994 20.177 4.15993 19.1127 4.60347 18.1554C5.047 17.1981 5.75551 16.3879 6.64514 15.8207C7.53476 15.2535 8.56826 14.953 9.62332 14.9549ZM22.5138 20.4864C22.514 21.2372 22.7368 21.9712 23.1541 22.5954C23.5714 23.2197 24.1644 23.7061 24.8582 23.9933C25.5519 24.2805 26.3153 24.3555 27.0517 24.2089C27.7881 24.0623 28.4645 23.7005 28.9953 23.1695C29.5261 22.6384 29.8875 21.9619 30.0339 21.2254C30.1802 20.4889 30.1048 19.7256 29.8173 19.032C29.5298 18.3383 29.0431 17.7455 28.4187 17.3285C27.7942 16.9115 27.0602 16.689 26.3093 16.6892C26.1777 16.6954 26.0465 16.7087 25.9163 16.729L27.1274 20.2011C27.1652 20.3086 27.1814 20.4225 27.1751 20.5362C27.1688 20.65 27.1401 20.7615 27.0907 20.8641C27.0413 20.9668 26.9721 21.0587 26.8871 21.1346C26.8021 21.2105 26.703 21.2689 26.5954 21.3065C26.4878 21.344 26.3739 21.36 26.2601 21.3534C26.1463 21.3468 26.035 21.3179 25.9324 21.2682C25.8299 21.2185 25.7381 21.1491 25.6624 21.064C25.5867 20.9788 25.5286 20.8795 25.4913 20.7718L24.2767 17.2907C23.7376 17.6319 23.2934 18.1037 22.9853 18.6624C22.6771 19.221 22.5149 19.8484 22.5138 20.4864ZM11.4474 19.6192H13.3096C13.1846 19.096 12.9489 18.6057 12.6184 18.1813L11.4474 19.6192ZM13.7295 16.8167C14.4354 17.6028 14.8993 18.5759 15.0655 19.6192H15.7127L14.4917 15.8805L13.7295 16.8167ZM15.9428 14.7332L17.2288 18.6731L21.2266 13.5347L15.9428 14.7332ZM9.62332 24.2827C10.4778 24.2807 11.3066 23.9904 11.9756 23.4588C12.6445 22.9272 13.1145 22.1854 13.3095 21.3535H9.62332C9.45937 21.3533 9.29882 21.3067 9.16027 21.219C9.02173 21.1314 8.91085 21.0062 8.84049 20.8582C8.77012 20.7101 8.74315 20.5451 8.7627 20.3823C8.78225 20.2195 8.84752 20.0656 8.95094 19.9384L11.2752 17.0836C10.762 16.8275 10.1969 16.6925 9.62332 16.6891C9.12404 16.688 8.62945 16.7855 8.16787 16.9758C7.70628 17.1661 7.28677 17.4456 6.93335 17.7983C6.57993 18.151 6.29953 18.5699 6.10822 19.031C5.9169 19.4922 5.81843 19.9866 5.81843 20.4859C5.81843 20.9852 5.9169 21.4795 6.10822 21.9407C6.29953 22.4019 6.57993 22.8208 6.93335 23.1735C7.28677 23.5261 7.70628 23.8056 8.16787 23.996C8.62945 24.1863 9.12404 24.2838 9.62332 24.2827Z" fill="white"/>
</g>
</g>
<defs>
<clipPath id="clip0_84_116">
<rect width="36" height="45" fill="white"/>
</clipPath>
</defs>
</svg>
