<?xml version="1.0" encoding="UTF-8" standalone="no" ?>
<svg
  width="36"
  height="44.9804"
  viewBox="0 0 36 44.9804"
  version="1.1"
  id="svg1"
  xmlns="http://www.w3.org/2000/svg"
  xmlns:svg="http://www.w3.org/2000/svg"
>
  <g id="marker0" clip-path="url(#clip0_84_84)">
    <path
      id="0"
      d="m 17.9992,28.336 c -1.792,0 -3.332,-0.4294 -4.62,-1.288 -1.288,-0.8587 -2.2773,-2.044 -2.968,-3.556 C 9.72058,21.9613 9.37524,20.1973 9.37524,18.2 c 0,-1.9974 0.34534,-3.752 1.03596,-5.264 0.6907,-1.5307 1.68,-2.7254 2.968,-3.58404 1.288,-0.85866 2.828,-1.288 4.62,-1.288 1.792,0 3.3227,0.42934 4.592,1.288 1.288,0.85864 2.2774,2.05334 2.968,3.58404 0.6907,1.512 1.036,3.2666 1.036,5.264 0,1.9973 -0.3453,3.7613 -1.036,5.292 -0.6906,1.512 -1.68,2.6973 -2.968,3.556 -1.2693,0.8586 -2.8,1.288 -4.592,1.288 z m 0,-3.528 c 0.9147,0 1.7174,-0.2707 2.408,-0.812 0.6907,-0.5414 1.232,-1.2974 1.624,-2.268 0.392,-0.9894 0.588,-2.1654 0.588,-3.528 0,-1.3627 -0.196,-2.5294 -0.588,-3.5 -0.392,-0.9894 -0.9333,-1.7547 -1.624,-2.296 -0.6906,-0.5414 -1.4933,-0.812 -2.408,-0.812 -0.9146,0 -1.7173,0.2706 -2.408,0.812 -0.6906,0.5413 -1.232,1.3066 -1.624,2.296 -0.392,0.9706 -0.588,2.1373 -0.588,3.5 0,1.3626 0.196,2.5386 0.588,3.528 0.392,0.9706 0.9334,1.7266 1.624,2.268 0.6907,0.5413 1.4934,0.812 2.408,0.812 z"
      fill="#ffffff"
    />
  </g>
  <defs id="defs1">
    <clipPath id="clip0_84_84">
      <rect width="36" height="45" fill="#ffffff" id="rect1" x="0" y="0" />
    </clipPath>
  </defs>
</svg>
