<?xml version="1.0" encoding="UTF-8" standalone="no" ?>
<!-- Created with Inkscape (http://www.inkscape.org/) -->
<svg
  width="48"
  height="48"
  viewBox="0 0 48 48"
  version="1.1"
  id="svg1"
  xml:space="preserve"
  xmlns="http://www.w3.org/2000/svg"
  xmlns:svg="http://www.w3.org/2000/svg"
><defs id="defs1" /><g id="layer1"><path
      style="fill:var(--ion-color-primary);stroke:#ffffff;stroke-width:2;stroke-linecap:butt;stroke-dasharray:none;stroke-opacity:1"
      d="m 11.532278,20.740889 c 0.142367,-2.77187 1.094964,-6.87471 5.077644,-9.466796 3.98268,-2.5920864 6.257556,-3.6991005 10.155291,-4.6473361 3.897735,-0.9482356 6.480818,-0.6455044 9.036486,-0.086062 2.555668,0.5594425 5.424535,2.2641494 7.057066,4.7333981 1.40755,2.128957 4.185126,7.9444 3.528533,11.790463 -0.656593,3.846063 -7.099682,9.200357 -11.446216,10.757722 -4.346534,1.557365 -8.168021,2.286851 -12.56502,2.065482 -4.396999,-0.221369 -6.534584,-2.236768 -7.831621,-3.958841 -1.297038,-1.722074 -3.15453,-8.416161 -3.012163,-11.18803 z"
      id="path1"
    /><path
      style="fill:var(--ion-color-primary);stroke:#ffffff;stroke-width:2;stroke-linecap:round;stroke-linejoin:round;stroke-dasharray:none;stroke-opacity:1"
      d="m 21.635162,10.637088 c 0.545179,1.325646 3.201223,0.885828 4.452175,0.385052 1.250952,-0.500776 2.850837,-1.5282555 2.430647,-2.7675674 C 28.097794,7.0152607 25.695073,7.048373 24.378665,7.5085325 23.062257,7.968692 21.089983,9.311442 21.635162,10.637088 Z"
      id="path2"
    /><path
      style="fill:var(--ion-color-primary);stroke:#ffffff;stroke-width:2;stroke-linecap:round;stroke-linejoin:round;stroke-dasharray:none;stroke-opacity:1"
      d="m 17.063048,16.505887 c 0,0 4.79123,1.388722 10.586054,-1.183967 5.794824,-2.572689 8.113653,-5.084091 8.113653,-5.084091"
      id="path3"
    /><path
      style="fill:var(--ion-color-primary);stroke:#ffffff;stroke-width:2;stroke-linecap:round;stroke-linejoin:round;stroke-dasharray:none;stroke-opacity:1"
      d="m 12.739063,27.262586 c 0,0 5.344742,6.131337 18.7864,2.577554 13.441658,-3.553783 13.482588,-14.126977 13.482588,-14.126977"
      id="path4"
    /><path
      style="fill:var(--ion-color-primary);stroke:#ffffff;stroke-width:2;stroke-linecap:round;stroke-linejoin:round;stroke-dasharray:none;stroke-opacity:1"
      d="m 39.987556,31.316419 c 0,0 3.499486,10.575178 -0.64496,11.824278 -4.144446,1.2491 -7.632034,-8.062007 -7.632034,-8.062007 m 5.911989,-2.510698 c 0,0 2.214333,6.565445 0.60913,7.130398 -2.347933,0.826357 -4.013089,-5.589658 -4.013089,-5.589658"
      id="path5"
    /><path
      style="fill:var(--ion-color-primary);stroke:#ffffff;stroke-width:2;stroke-linecap:round;stroke-linejoin:round;stroke-dasharray:none;stroke-opacity:1"
      d="m 26.077894,35.96802 c 0.78972,2.888593 2.033049,7.300036 5.131032,7.8893 3.097983,0.589264 7.443012,-0.553568 7.417047,-0.501636"
      id="path6"
    /><path
      style="fill:var(--ion-color-primary);stroke:#ffffff;stroke-width:2;stroke-linecap:round;stroke-linejoin:round;stroke-dasharray:none;stroke-opacity:1"
      d="m 11.746439,18.714047 c 0,0 -1.9724497,-0.464696 -2.8788558,-1.224079 C 7.9611771,16.730585 7.919681,14.756827 6.9341631,14.024403 5.9486452,13.291979 4.6819716,12.893366 3.6145173,13.294811 2.547063,13.696256 1.9030251,14.813895 1.5716584,16.067262 c -0.3313667,1.253367 -0.074726,3.130913 0.5107147,4.304596 0.5854404,1.173683 1.6804681,1.915408 2.5535737,2.444135 0.8731055,0.528727 1.4355513,0.731009 2.0793386,0.255357 0.6437872,-0.475652 0.8803939,-0.868155 1.7145423,-1.057909 0.8341484,-0.189754 3.0247743,0.530967 3.0247743,0.530967"
      id="path7"
    /></g></svg>
