<?xml version="1.0" encoding="utf-8"?>
<!-- Generator: Adobe Illustrator 25.0.0, SVG Export Plug-In . SVG Version: 6.00 Build 0)  -->
<svg version="1.1" id="Calque_1" xmlns="http://www.w3.org/2000/svg" xmlns:xlink="http://www.w3.org/1999/xlink" x="0px" y="0px"
	 viewBox="0 0 257.2 104.7" style="enable-background:new 0 0 257.2 104.7;" xml:space="preserve">
<style type="text/css">
	.st0{fill:#010202;}
</style>
<path class="st0" d="M153.6,32.6L153.6,32.6c1.3,0,2.4-1.1,2.4-2.4V11c0-1.3-1.1-2.4-2.4-2.4l0,0c-1.3,0-2.4,1.1-2.4,2.4v19.2
	C151.2,31.6,152.3,32.6,153.6,32.6z"/>
<path class="st0" d="M254.9,38.3h-52.4c-0.1-0.1-0.2-0.3-0.3-0.4L175.5,2.6c-3.8-5-11.9-2.3-11.9,4v31.7h-60.9v-5.1
	c0-3.1-2.5-5.5-5.5-5.5h-9c-3.1,0-5.5,2.5-5.5,5.5v5.1H19.1c-4.6,0-7.3,3.9-8.4,8.3L0,96.1c14.7,5.4,32.7,9.8,49.3,7.8
	c36.8-4.3,65.2-21,102.5-10.9c28,7.6,48.6,16.6,85.8,8.4C258.4,73.6,259.6,38.3,254.9,38.3z"/>
</svg>
