<?xml version="1.0" encoding="utf-8"?>
<svg xmlns="http://www.w3.org/2000/svg" viewBox="18.723 -9.498 248.375 236.357" width="285.407px" height="185.055px" xmlns:bx="https://boxy-svg.com" preserveAspectRatio="none"><defs><bx:export><bx:file format="svg" href="#object-3"/><bx:file format="svg" path="Untitled 2.svg"/></bx:export></defs><g id="object-3" transform="matrix(0.800452, 0, 0.00155, 0.800452, 71.810944, 112.155792)" style=""><path d="M 122.866 -100.57 C 122.146 -100.81 121.426 -101.09 120.696 -101.3 C 118.236 -101.98 116.616 -104.17 116.836 -106.54 C 117.066 -109.01 119.146 -111.22 121.636 -111.24 C 122.896 -111.25 124.196 -110.68 125.426 -110.25 C 130.966 -108.31 135.876 -105.28 140.046 -101.16 C 141.906 -99.32 143.466 -97.167 145.146 -95.127 C 149.106 -90.317 153.066 -85.507 156.986 -80.657 C 157.546 -79.967 158.016 -79.747 158.896 -80.037 C 164.246 -81.777 169.606 -83.467 174.976 -85.127 C 175.876 -85.407 176.266 -85.847 176.356 -86.777 C 176.686 -90.397 177.066 -94.007 177.436 -97.627 C 177.566 -98.937 177.696 -100.25 177.896 -101.56 C 178.256 -103.91 180.376 -105.62 182.826 -105.59 C 185.266 -105.56 187.356 -103.77 187.616 -101.41 C 187.706 -100.59 187.656 -99.73 187.566 -98.897 C 186.976 -93.097 186.346 -87.297 185.766 -81.497 C 185.526 -79.047 184.186 -77.557 181.916 -76.837 C 173.776 -74.267 165.646 -71.677 157.486 -69.167 C 155.476 -68.547 153.666 -69.127 152.286 -70.727 C 150.956 -72.267 149.696 -73.867 148.406 -75.447 C 148.066 -75.867 147.716 -76.277 147.196 -76.907 C 147.156 -76.397 147.076 -76.177 147.126 -75.977 C 148.066 -71.857 149.046 -67.737 149.966 -63.617 C 150.146 -62.807 150.526 -62.837 151.166 -63.047 C 155.126 -64.347 159.156 -65.267 163.376 -65.107 C 166.776 -64.977 168.326 -63.807 168.816 -60.447 C 169.596 -55.177 168.306 -50.317 165.426 -45.867 C 164.436 -44.347 162.756 -43.917 161.136 -43.477 C 160.096 -43.197 159.036 -42.997 157.986 -42.777 C 157.196 -42.617 156.906 -42.327 157.316 -41.457 C 166.506 -22.127 175.686 -2.777 184.836 16.573 C 185.286 17.523 185.636 18.603 185.696 19.633 C 185.826 21.923 184.306 23.863 182.156 24.453 C 179.906 25.073 177.506 24.123 176.456 22.003 C 174.336 17.713 172.306 13.383 170.256 9.053 C 162.706 -6.867 155.156 -22.787 147.636 -38.717 C 147.236 -39.577 146.906 -39.617 146.116 -39.177 C 143.676 -37.807 142.106 -35.627 140.766 -33.317 C 137.336 -27.377 134.056 -21.347 130.656 -15.387 C 124.396 -4.407 117.256 5.903 107.956 14.573 C 105.736 16.643 103.326 18.493 101.046 20.503 C 100.626 20.873 100.256 21.513 100.206 22.053 C 99.636 28.763 95.626 33.823 89.176 35.803 C 88.226 36.093 87.226 36.233 86.236 36.323 C 85.466 36.393 85.106 36.743 84.906 37.443 C 84.476 38.983 84.036 40.513 83.546 42.033 C 83.286 42.823 83.576 43.023 84.326 43.033 C 85.356 43.043 86.426 42.993 87.426 43.213 C 90.066 43.783 91.526 46.003 91.216 48.753 C 90.936 51.183 88.936 52.963 86.356 52.973 C 80.796 52.993 75.246 52.993 69.686 52.973 C 66.846 52.963 64.696 50.853 64.656 48.113 C 64.616 45.363 66.696 43.173 69.496 43.033 C 70.296 42.993 71.096 42.983 71.896 43.033 C 72.686 43.083 73.056 42.703 73.256 41.993 C 74.016 39.343 74.816 36.713 75.526 34.063 C 75.626 33.673 75.446 33.013 75.156 32.743 C 72.876 30.673 71.296 28.173 70.496 25.213 C 70.276 24.383 69.756 24.403 69.146 24.413 C 64.306 24.473 59.476 24.513 54.636 24.583 C 50.516 24.633 48.646 23.203 47.806 19.143 C 47.436 17.353 47.176 15.523 47.006 13.703 C 46.436 7.733 44.256 2.323 41.216 -2.757 C 34.866 -13.357 25.576 -20.067 13.626 -23.057 C 6.846 -24.757 0.006 -24.677 -6.794 -23.077 C -7.284 -22.957 -7.754 -22.777 -8.474 -22.547 C 0.636 -13.487 6.616 -2.997 8.356 9.903 C 8.866 9.513 9.246 9.263 9.576 8.963 C 13.916 5.003 18.226 1.023 22.586 -2.917 C 25.046 -5.137 28.426 -4.857 30.256 -2.357 C 31.766 -0.277 31.466 2.483 29.446 4.353 C 25.596 7.903 21.716 11.413 17.846 14.933 C 17.616 15.143 17.326 15.283 17.066 15.453 C 17.126 15.583 17.176 15.703 17.236 15.833 C 17.636 15.853 18.036 15.913 18.446 15.903 C 23.356 15.793 28.276 15.683 33.186 15.563 C 35.246 15.513 36.966 16.123 38.096 17.943 C 40.126 21.203 37.906 25.423 34.066 25.523 C 25.076 25.753 16.086 25.943 7.096 26.133 C 5.476 26.163 3.786 26.413 2.236 26.063 C -0.404 25.463 -1.504 23.413 -1.474 20.693 C -1.434 17.073 -1.384 13.413 -1.814 9.833 C -2.594 3.243 -5.334 -2.647 -9.174 -8.027 C -15.334 -16.667 -23.544 -22.907 -32.744 -27.977 C -33.434 -28.357 -33.854 -28.227 -34.204 -27.577 C -34.244 -27.507 -34.304 -27.447 -34.324 -27.367 C -35.834 -23.207 -39.344 -24.067 -42.514 -24.157 C -42.734 -24.167 -43.114 -24.807 -43.124 -25.167 C -43.174 -27.447 -43.184 -29.717 -43.134 -31.997 C -43.114 -32.967 -43.434 -33.367 -44.434 -33.347 C -45.554 -33.327 -46.664 -33.457 -47.784 -33.527 C -49.204 -33.607 -49.724 -34.107 -49.394 -35.497 C -48.884 -37.667 -48.424 -39.897 -47.524 -41.907 C -45.964 -45.397 -44.114 -48.747 -42.334 -52.127 C -41.454 -53.797 -40.164 -54.527 -38.094 -54.567 C -26.904 -54.747 -15.724 -55.227 -4.534 -55.367 C 3.256 -55.467 11.066 -55.117 18.776 -53.877 C 29.296 -52.177 38.326 -47.457 45.836 -39.867 C 46.716 -38.977 47.556 -38.047 48.406 -37.127 C 48.516 -37.207 48.636 -37.287 48.746 -37.367 C 48.266 -38.687 47.796 -40.017 47.306 -41.337 C 45.836 -45.347 44.426 -49.377 42.026 -52.967 C 41.956 -53.067 41.886 -53.167 41.836 -53.267 C 40.986 -54.907 39.766 -55.347 37.906 -54.917 C 33.246 -53.837 28.746 -54.747 24.496 -56.707 C 19.016 -59.227 18.336 -63.397 21.066 -68.387 C 23.396 -72.627 27.486 -73.277 31.836 -73.047 C 35.326 -72.857 38.496 -71.447 41.676 -70.187 C 44.056 -69.247 46.436 -68.817 49.026 -68.847 C 52.966 -68.897 56.926 -68.757 60.846 -68.387 C 63.136 -68.167 65.286 -67.197 66.266 -64.797 C 66.896 -63.257 66.546 -61.727 65.916 -60.267 C 65.816 -60.027 65.346 -59.877 65.016 -59.807 C 60.656 -58.817 56.286 -57.827 51.766 -57.877 C 51.546 -57.877 51.326 -57.797 50.936 -57.727 C 51.666 -56.337 52.466 -55.097 53.006 -53.757 C 54.986 -48.847 56.946 -43.917 58.806 -38.957 C 62.136 -30.077 65.376 -21.167 68.656 -12.267 C 71.006 -5.907 73.356 0.443 75.706 6.793 C 75.886 7.273 76.096 7.753 76.356 8.373 C 76.976 8.143 77.536 7.883 78.126 7.723 C 80.576 7.053 83.036 6.423 85.496 5.773 C 92.936 3.793 100.326 1.663 107.146 -2.047 C 113.376 -5.437 117.626 -10.617 120.526 -16.927 C 123.856 -24.167 126.956 -31.517 130.206 -38.797 C 132.236 -43.347 134.226 -47.917 136.486 -52.357 C 137.386 -54.117 138.946 -55.567 140.296 -57.067 C 140.806 -57.627 141.056 -58.087 140.876 -58.847 C 139.636 -64.127 138.436 -69.417 137.216 -74.707 C 136.006 -79.957 134.786 -85.197 133.606 -90.457 C 133.376 -91.477 133.186 -92.067 131.826 -91.757 C 127.356 -90.717 122.836 -89.887 118.356 -88.917 C 115.106 -88.207 112.556 -89.487 111.686 -92.367 C 110.926 -94.887 112.476 -97.757 115.026 -98.387 C 117.196 -98.927 119.396 -99.34 121.576 -99.82 C 121.986 -99.91 122.396 -100.01 122.806 -100.11 C 122.816 -100.25 122.846 -100.41 122.866 -100.57 Z" id="object-0"/><path d="M 181.396 -34.237 C 192.686 -34.317 202.916 -30.947 212.076 -24.387 C 221.266 -17.807 227.816 -9.157 231.666 1.453 C 234.546 9.393 235.426 17.583 234.416 25.983 C 232.826 39.203 227.106 50.333 217.426 59.413 C 210.966 65.463 203.386 69.593 194.816 71.893 C 186.516 74.113 178.136 74.493 169.786 72.593 C 152.616 68.693 139.956 58.803 132.176 43.023 C 125.976 30.453 125.176 17.303 129.126 3.863 C 131.416 -3.937 135.546 -10.707 140.726 -16.887 C 142.596 -19.117 145.786 -19.387 147.936 -17.647 C 150.096 -15.907 150.486 -12.767 148.666 -10.457 C 146.016 -7.097 143.386 -3.747 141.506 0.133 C 137.206 9.003 135.736 18.313 137.776 27.983 C 141.186 44.143 150.746 55.403 166.196 60.973 C 181.236 66.403 195.446 63.783 208.076 53.953 C 216.996 47.013 222.206 37.723 224.106 26.603 C 227.366 7.553 216.726 -12.337 199.116 -20.257 C 192.586 -23.197 185.776 -24.557 178.616 -24.207 C 177.516 -24.157 176.346 -24.147 175.306 -24.447 C 172.916 -25.147 171.466 -27.507 171.816 -29.787 C 172.196 -32.317 174.166 -34.127 176.726 -34.207 C 178.286 -34.277 179.846 -34.237 181.396 -34.237 Z" id="object-1"/><path d="M 3.616 73.713 C -18.224 73.673 -37.864 60.633 -46.314 40.633 C -49.754 32.483 -51.134 23.993 -50.394 15.233 C -49.484 4.393 -45.604 -5.367 -38.874 -13.967 C -38.404 -14.567 -37.954 -15.177 -37.474 -15.757 C -35.404 -18.297 -32.264 -18.837 -29.964 -17.047 C -27.614 -15.227 -27.414 -12.197 -29.374 -9.467 C -31.264 -6.847 -33.324 -4.317 -34.874 -1.507 C -39.864 7.543 -41.624 17.233 -39.614 27.413 C -36.354 43.963 -26.694 55.373 -10.874 61.043 C 9.426 68.323 31.226 59.753 41.916 40.763 C 42.656 39.443 43.306 38.073 43.936 36.693 C 44.966 34.413 47.266 33.083 49.526 33.513 C 52.006 33.983 53.676 35.893 53.746 38.453 C 53.766 39.183 53.596 39.983 53.296 40.653 C 47.746 53.283 38.836 62.703 26.346 68.673 C 19.656 71.893 11.386 73.723 3.616 73.713 Z" id="object-2"/></g></svg>