<svg
  width="36"
  height="45"
  viewBox="0 0 36 45"
  xmlns="http://www.w3.org/2000/svg"
>
<g id="marker9" clip-path="url(#clip0_84_108)">
<path
      id="9"
      d="M17.6813 28.336C16.3186 28.336 15.152 28.0746 14.1813 27.552C13.2293 27.0106 12.492 26.3106 11.9693 25.452C11.4466 24.5746 11.1386 23.6413 11.0453 22.652H14.6853C14.8533 23.4546 15.1986 24.0706 15.7213 24.5C16.244 24.9106 16.916 25.116 17.7373 25.116C18.5213 25.116 19.1933 24.8826 19.7533 24.416C20.332 23.9493 20.78 23.2493 21.0973 22.316C21.4333 21.3826 21.62 20.2253 21.6573 18.844C21.6573 18.788 21.6573 18.7413 21.6573 18.704C21.6573 18.648 21.6573 18.592 21.6573 18.536C21.396 19.04 21.0133 19.488 20.5093 19.88C20.024 20.2533 19.464 20.552 18.8293 20.776C18.2133 20.9813 17.5693 21.084 16.8973 21.084C15.8146 21.084 14.7973 20.832 13.8453 20.328C12.912 19.8053 12.156 19.068 11.5773 18.116C11.0173 17.164 10.7373 16.0346 10.7373 14.728C10.7373 13.5146 11.0266 12.404 11.6053 11.396C12.184 10.388 12.9866 9.5853 14.0133 8.98796C15.0586 8.37196 16.244 8.06396 17.5693 8.06396C19.0626 8.06396 20.3133 8.34396 21.3213 8.90396C22.348 9.4453 23.16 10.1733 23.7573 11.088C24.3733 11.984 24.8213 13.0013 25.1013 14.14C25.3813 15.26 25.5213 16.408 25.5213 17.584C25.5213 19.768 25.2133 21.672 24.5973 23.296C23.9813 24.9013 23.0853 26.1426 21.9093 27.02C20.752 27.8973 19.3426 28.336 17.6813 28.336ZM17.8213 17.78C18.4746 17.78 19.0533 17.6493 19.5573 17.388C20.0613 17.108 20.4626 16.7346 20.7613 16.268C21.06 15.7826 21.2093 15.2413 21.2093 14.644C21.2093 14.0093 21.06 13.4493 20.7613 12.964C20.4626 12.4786 20.052 12.1053 19.5293 11.844C19.0253 11.564 18.4466 11.424 17.7933 11.424C17.1586 11.424 16.5893 11.564 16.0853 11.844C15.5813 12.1053 15.1893 12.4786 14.9093 12.964C14.6293 13.4306 14.4893 13.972 14.4893 14.588C14.4893 15.2226 14.6293 15.7826 14.9093 16.268C15.1893 16.7533 15.5813 17.1266 16.0853 17.388C16.608 17.6493 17.1866 17.78 17.8213 17.78Z"
      fill="#ffffff"
    />
</g>
<defs>
<clipPath id="clip0_84_108">
<rect width="36" height="45" fill="white" />
</clipPath>
</defs>
</svg>
