<svg
  width="36"
  height="45"
  viewBox="0 0 36 45"
  xmlns="http://www.w3.org/2000/svg"
>
<g id="marker3" clip-path="url(#clip0_84_90)">
<path
      id="3"
      d="M17.9507 28.336C16.6814 28.336 15.5147 28.1026 14.4507 27.636C13.3867 27.1693 12.528 26.46 11.8747 25.508C11.24 24.556 10.904 23.3426 10.8667 21.868H14.7307C14.7307 22.4653 14.8614 23.0066 15.1227 23.492C15.384 23.9773 15.7574 24.36 16.2427 24.64C16.728 24.92 17.3067 25.06 17.9787 25.06C18.6134 25.06 19.1547 24.9386 19.6027 24.696C20.0507 24.4346 20.3867 24.0986 20.6107 23.688C20.8347 23.2586 20.9467 22.7733 20.9467 22.232C20.9467 21.616 20.788 21.1026 20.4707 20.692C20.172 20.2626 19.7427 19.936 19.1827 19.712C18.6414 19.488 18.0067 19.376 17.2787 19.376H15.8227V16.156H17.2787C18.1747 16.156 18.9307 15.9506 19.5467 15.54C20.1627 15.1293 20.4707 14.4946 20.4707 13.636C20.4707 12.9453 20.2374 12.3946 19.7707 11.984C19.3227 11.5733 18.716 11.368 17.9507 11.368C17.0547 11.368 16.364 11.6293 15.8787 12.152C15.3934 12.656 15.1227 13.2813 15.0667 14.028H11.2587C11.3147 12.7773 11.6227 11.704 12.1827 10.808C12.7614 9.91196 13.5454 9.23063 14.5347 8.76396C15.524 8.2973 16.6627 8.06396 17.9507 8.06396C19.3134 8.06396 20.4707 8.30663 21.4227 8.79196C22.3747 9.25863 23.0934 9.8933 23.5787 10.696C24.064 11.4986 24.3067 12.376 24.3067 13.328C24.3067 14.112 24.1574 14.8026 23.8587 15.4C23.5787 15.9786 23.196 16.464 22.7107 16.856C22.2254 17.248 21.7027 17.528 21.1427 17.696C21.8707 17.8453 22.5054 18.1346 23.0467 18.564C23.588 18.9746 24.008 19.5066 24.3067 20.16C24.624 20.8133 24.7827 21.56 24.7827 22.4C24.7827 23.464 24.5214 24.4533 23.9987 25.368C23.476 26.264 22.7014 26.9826 21.6747 27.524C20.6667 28.0653 19.4254 28.336 17.9507 28.336Z"
      fill="white"
    />
</g>
<defs>
<clipPath id="clip0_84_90">
<rect width="36" height="45" fill="white" />
</clipPath>
</defs>
</svg>
