<svg
  width="36"
  height="45"
  viewBox="0 0 36 45"
  xmlns="http://www.w3.org/2000/svg"
>
<g id="marker5" clip-path="url(#clip0_84_96)">

<path
      id="5"
      d="M18.2374 28.336C16.8001 28.336 15.5587 28.084 14.5134 27.58C13.4867 27.076 12.6747 26.3854 12.0774 25.508C11.4987 24.6307 11.1721 23.6227 11.0974 22.484H14.9054C15.0547 23.1934 15.4281 23.7907 16.0254 24.276C16.6227 24.7614 17.3694 25.004 18.2654 25.004C18.9001 25.004 19.4601 24.8454 19.9454 24.528C20.4307 24.192 20.8134 23.744 21.0934 23.184C21.3734 22.624 21.5134 21.9987 21.5134 21.308C21.5134 20.5614 21.3734 19.9267 21.0934 19.404C20.8134 18.8814 20.4307 18.48 19.9454 18.2C19.4601 17.92 18.9094 17.78 18.2934 17.78C17.5467 17.78 16.8934 17.9667 16.3334 18.34C15.7734 18.7134 15.3721 19.1614 15.1294 19.684H11.3494L12.9734 8.40002H24.0334V11.844H15.8854L15.1014 16.016C15.4934 15.6054 16.0254 15.2694 16.6974 15.008C17.3881 14.7467 18.1534 14.616 18.9934 14.616C20.0574 14.616 20.9814 14.8027 21.7654 15.176C22.5494 15.5307 23.2027 16.0254 23.7254 16.66C24.2481 17.276 24.6401 17.9854 24.9014 18.788C25.1627 19.572 25.2934 20.3934 25.2934 21.252C25.2934 22.2974 25.1161 23.2587 24.7614 24.136C24.4067 24.9947 23.9121 25.7414 23.2774 26.376C22.6614 26.992 21.9241 27.4774 21.0654 27.832C20.2067 28.168 19.2641 28.336 18.2374 28.336Z"
      fill="#ffffff"
    />
</g>
<defs>
<clipPath id="clip0_84_96">
<rect width="36" height="45" fill="white" />
</clipPath>
</defs>
</svg>
