<svg
  width="36"
  height="45"
  viewBox="0 0 36 45"
  xmlns="http://www.w3.org/2000/svg"
>
<g id="marker8" clip-path="url(#clip0_84_105)">

<path
      id="8"
      d="M17.9891 28.336C16.6451 28.336 15.4225 28.0933 14.3211 27.608C13.2385 27.1226 12.3705 26.4413 11.7171 25.564C11.0825 24.6866 10.7651 23.66 10.7651 22.484C10.7651 21.7 10.8958 20.9813 11.1571 20.328C11.4371 19.656 11.8198 19.0773 12.3051 18.592C12.7905 18.088 13.3598 17.7053 14.0131 17.444C13.1918 17.0333 12.5198 16.4733 11.9971 15.764C11.4931 15.036 11.2411 14.2146 11.2411 13.3C11.2411 12.3853 11.4931 11.536 11.9971 10.752C12.5198 9.9493 13.2758 9.3053 14.2651 8.81996C15.2731 8.31596 16.5145 8.06396 17.9891 8.06396C19.4825 8.06396 20.7238 8.31596 21.7131 8.81996C22.7211 9.3053 23.4771 9.9493 23.9811 10.752C24.4851 11.536 24.7371 12.3853 24.7371 13.3C24.7371 14.196 24.4758 15.0173 23.9531 15.764C23.4491 16.492 22.7865 17.052 21.9651 17.444C22.6371 17.724 23.2158 18.116 23.7011 18.62C24.1865 19.1053 24.5598 19.6746 24.8211 20.328C25.1011 20.9813 25.2411 21.7 25.2411 22.484C25.2411 23.66 24.9145 24.6866 24.2611 25.564C23.6078 26.4413 22.7398 27.1226 21.6571 27.608C20.5745 28.0933 19.3518 28.336 17.9891 28.336ZM17.9891 25.088C19.1091 25.088 19.9491 24.808 20.5091 24.248C21.0878 23.688 21.3771 22.988 21.3771 22.148C21.3771 21.2333 21.0785 20.5146 20.4811 19.992C19.8838 19.4506 19.0531 19.18 17.9891 19.18C16.9251 19.18 16.0851 19.4506 15.4691 19.992C14.8718 20.5146 14.5731 21.2333 14.5731 22.148C14.5731 22.988 14.8625 23.688 15.4411 24.248C16.0385 24.808 16.8878 25.088 17.9891 25.088ZM17.9891 16.324C18.9038 16.324 19.6131 16.0906 20.1171 15.624C20.6398 15.1386 20.9011 14.532 20.9011 13.804C20.9011 13.0013 20.6491 12.376 20.1451 11.928C19.6411 11.4613 18.9225 11.228 17.9891 11.228C17.0745 11.228 16.3651 11.4613 15.8611 11.928C15.3758 12.376 15.1331 13.0013 15.1331 13.804C15.1331 14.532 15.3758 15.1386 15.8611 15.624C16.3651 16.0906 17.0745 16.324 17.9891 16.324Z"
      fill="#ffffff"
    />
</g>
<defs>
<clipPath id="clip0_84_105">
<rect width="36" height="45" fill="white" />
</clipPath>
</defs>
</svg>
