<svg
  width="36"
  height="45"
  viewBox="0 0 36 45"
  xmlns="http://www.w3.org/2000/svg"
>
<g id="marker9+" clip-path="url(#clip0_84_111)">
<path
      id="+"
      d="M24.6154 21.7241V11.5601H27.3874V21.7241H24.6154ZM23 18.0061V15.2561H31.4574V18.0061H23Z"
      fill="#ffffff"
    />
<path
      id="9"
      d="M14.7039 28.312C13.4385 28.312 12.3552 28.0694 11.4539 27.584C10.5699 27.0814 9.88519 26.4314 9.39986 25.634C8.91453 24.8194 8.62853 23.9527 8.54186 23.034H11.9219C12.0779 23.7794 12.3985 24.3514 12.8839 24.75C13.3692 25.1314 13.9932 25.322 14.7559 25.322C15.4839 25.322 16.1079 25.1054 16.6279 24.672C17.1652 24.2387 17.5812 23.5887 17.8759 22.722C18.1879 21.8554 18.3612 20.7807 18.3959 19.498C18.3959 19.446 18.3959 19.4027 18.3959 19.368C18.3959 19.316 18.3959 19.264 18.3959 19.212C18.1532 19.68 17.7979 20.096 17.3299 20.46C16.8792 20.8067 16.3592 21.084 15.7699 21.292C15.1979 21.4827 14.5999 21.578 13.9759 21.578C12.9705 21.578 12.0259 21.344 11.1419 20.876C10.2752 20.3907 9.57319 19.706 9.03586 18.822C8.51586 17.938 8.25586 16.8894 8.25586 15.676C8.25586 14.5494 8.52453 13.518 9.06186 12.582C9.59919 11.646 10.3445 10.9007 11.2979 10.346C12.2685 9.77404 13.3692 9.48804 14.5999 9.48804C15.9865 9.48804 17.1479 9.74804 18.0839 10.268C19.0372 10.7707 19.7912 11.4467 20.3459 12.296C20.9179 13.128 21.3339 14.0727 21.5939 15.13C21.8539 16.17 21.9839 17.236 21.9839 18.328C21.9839 20.356 21.6979 22.124 21.1259 23.632C20.5539 25.1227 19.7219 26.2754 18.6299 27.09C17.5552 27.9047 16.2465 28.312 14.7039 28.312ZM14.8339 18.51C15.4405 18.51 15.9779 18.3887 16.4459 18.146C16.9139 17.886 17.2865 17.5394 17.5639 17.106C17.8412 16.6554 17.9799 16.1527 17.9799 15.598C17.9799 15.0087 17.8412 14.4887 17.5639 14.038C17.2865 13.5874 16.9052 13.2407 16.4199 12.998C15.9519 12.738 15.4145 12.608 14.8079 12.608C14.2185 12.608 13.6899 12.738 13.2219 12.998C12.7539 13.2407 12.3899 13.5874 12.1299 14.038C11.8699 14.4714 11.7399 14.974 11.7399 15.546C11.7399 16.1354 11.8699 16.6554 12.1299 17.106C12.3899 17.5567 12.7539 17.9034 13.2219 18.146C13.7072 18.3887 14.2445 18.51 14.8339 18.51Z"
      fill="#ffffff"
    />
</g>
<defs>
<clipPath id="clip0_84_111">
<rect width="36" height="45" fill="white" />
</clipPath>
</defs>
</svg>
