<svg
  width="36"
  height="45"
  viewBox="0 0 36 45"
  xmlns="http://www.w3.org/2000/svg"
>
<g id="marker2" clip-path="url(#clip0_84_87)">
<path
      id="2"
      d="M11.2783 28V25.116C12.4543 24.164 13.6023 23.2213 14.7223 22.288C15.8423 21.336 16.8503 20.4026 17.7463 19.488C18.6423 18.5546 19.3517 17.6493 19.8743 16.772C20.397 15.876 20.6583 15.008 20.6583 14.168C20.6583 13.6826 20.565 13.2253 20.3783 12.796C20.1917 12.3666 19.9023 12.0213 19.5103 11.76C19.1183 11.4986 18.605 11.368 17.9703 11.368C17.3543 11.368 16.8223 11.5173 16.3743 11.816C15.945 12.096 15.6183 12.4786 15.3943 12.964C15.189 13.4493 15.0863 14 15.0863 14.616H11.3063C11.3437 13.1413 11.661 11.9186 12.2583 10.948C12.8743 9.9773 13.6863 9.25863 14.6943 8.79196C15.721 8.30663 16.8597 8.06396 18.1103 8.06396C19.5103 8.06396 20.6863 8.3253 21.6383 8.84796C22.609 9.35196 23.337 10.052 23.8223 10.948C24.3263 11.8253 24.5783 12.824 24.5783 13.944C24.5783 14.8026 24.4197 15.6426 24.1023 16.464C23.8037 17.2666 23.3837 18.0506 22.8423 18.816C22.301 19.5813 21.685 20.3186 20.9943 21.028C20.3223 21.7186 19.613 22.3813 18.8663 23.016C18.1383 23.6506 17.4197 24.248 16.7103 24.808H25.0263V28H11.2783Z"
      fill="#ffffff"
    />
</g>
<defs>
<clipPath id="clip0_84_87">
<rect width="36" height="45" fill="white" />
</clipPath>
</defs>
</svg>
